# xmcd
#
# Track frame offsets:
#	151
#	12826
#	23093
#	38572
#	49035
#	62750
#	77592
#	91145
#	113606
#	125014
#	140360
#	157373
#	170078
#	188054
#	212578
#	227939
#
# Disc length: 3203 seconds
#
# Revision: 1
# Processed by: cddbd v1.5.1PL2 Copyright (c) Steve Scherf et al.
# Submitted via: audiograbber 1.83.01
#
DISCID=d00c8110
DTITLE=Verschiedene Gruppen - Ireland - Sound of the World - CD 1
DYEAR=2006
DGENRE=Folklore
TTITLE0=Dublin City Ramblers - The Crack was ninety
TTITLE1=Jim McCann - Follow me up to Carlow
TTITLE2=Connie Foley - I'll take you home again Kathleen
TTITLE3=Johnny McEvoy - Mursheen Durkin
TTITLE4=Sean O'Se - The Castle of Drumore
TTITLE5=Aran Folk - McCafferty
TTITLE6=Dublin City Ramblers - The Ferryman
TTITLE7=Brier Folk - Flight of the Earls
TTITLE8=Corrib Folk - Spanish Lady
TTITLE9=Josef Locke - The Mountains of Mourne
TTITLE10=Barnbrack - Will ye go Lassie go
TTITLE11=Paddy Reilly - Spancill Hill
TTITLE12=Josef Locke - Danny Boy
TTITLE13=Fureys and Davy Arthur - Sweet Sexteen
TTITLE14=Emmet Spiceland - Mary from Dungloe
TTITLE15=Brier Folk - All for Mr. Grog
EXTD=
EXTT0=
EXTT1=
EXTT2=
EXTT3=
EXTT4=
EXTT5=
EXTT6=
EXTT7=
EXTT8=
EXTT9=
EXTT10=
EXTT11=
EXTT12=
EXTT13=
EXTT14=
EXTT15=
PLAYORDER=
